<?xml version="1.0" encoding="UTF-8"?>
<!DOCTYPE svg PUBLIC "-//W3C//DTD SVG 1.1//EN" "http://www.w3.org/Graphics/SVG/1.1/DTD/svg11.dtd">
<!-- Creator: CorelDRAW X8 -->
<svg xmlns="http://www.w3.org/2000/svg" xml:space="preserve" width="23.4762mm" height="23.4762mm" version="1.1" style="shape-rendering:geometricPrecision; text-rendering:geometricPrecision; image-rendering:optimizeQuality; fill-rule:evenodd; clip-rule:evenodd"
viewBox="0 0 56 56"
 xmlns:xlink="http://www.w3.org/1999/xlink">
 <defs>
  <style type="text/css">
   <![CDATA[
    .fil1 {fill:#FEFEFE}
    .fil0 {fill:#E52D11}
   ]]>
  </style>
 </defs>
 <g id="Layer_x0020_1">
  <metadata id="CorelCorpID_0Corel-Layer"/>
  <rect class="fil0" width="56.358" height="56.358" rx="14" ry="14"/>
  <path class="fil1" d="M21 28c1,1 2,1 3,2 0,-1 -1,-1 -1,-1 0,0 0,0 0,0l-4 -3c-1,0 -2,-1 -3,-2 0,0 1,-1 1,-1 1,0 2,1 3,2 2,1 3,3 5,4 1,1 1,1 2,2 1,0 1,0 2,0 0,0 1,0 1,0 1,0 1,-1 1,-1 1,-1 2,-2 3,-2 1,0 1,0 1,-1 1,-1 2,-2 3,-3 1,-1 2,-1 2,0 1,0 1,2 1,2 -1,1 -2,1 -2,2 0,0 0,0 -1,0 -1,1 -1,1 -1,2 0,0 3,-1 4,0 0,0 -1,3 -1,3 -1,3 -3,4 -5,6 0,0 -2,0 -2,1 0,0 0,1 0,2 1,0 14,0 16,0 1,0 2,0 2,-1 0,0 0,-2 -1,-2 -2,0 -2,0 -2,-2l0 -24c0,-1 0,-2 -1,-3 -1,-1 -2,0 -3,0 -2,1 -4,2 -5,3l-8 5c0,0 -1,1 -2,1 -1,0 -14,-8 -16,-9 -1,0 -2,0 -3,0 0,1 0,2 0,4l0 23c0,2 -1,2 -2,2 -1,1 -2,2 -1,3 0,0 17,0 17,0 0,-1 0,-2 0,-3 0,0 -3,-1 -4,-3 -2,-1 -3,-3 -3,-6 -1,-1 0,-1 1,0 1,0 2,0 2,0 1,0 2,1 3,1 0,-1 0,-1 -1,-1 -1,0 -5,-2 -5,-3 -1,0 0,-1 0,-1 1,1 1,1 2,1 0,1 1,1 2,1z"/>
 </g>
</svg>
